<mxfile host="app.diagrams.net" modified="2023-09-24T08:44:12.957Z" agent="Mozilla/5.0 (X11; Linux x86_64) AppleWebKit/537.36 (KHTML, like Gecko) Chrome/116.0.0.0 Safari/537.36" version="21.8.1" etag="5SNtkV2Gq4pNJwjQWmjc" type="github">
  <diagram name="Page-1" id="DQU7-5yiWoQVLSz7kpgQ">
    <mxGraphModel>
      <root>
        <mxCell id="0" />
        <mxCell id="1" parent="0" />
      </root>
    </mxGraphModel>
  </diagram>
</mxfile>
